<svg xmlns="http://www.w3.org/2000/svg" viewBox="0 0 1920 1280"><defs><style>.cls-1{isolation:isolate;}.cls-2{fill:#784e8d;}.cls-3{fill:#fff;}.cls-4{fill:#1f191a;opacity:0.2;mix-blend-mode:multiply;}.cls-5{fill:#7d48a4;}.cls-6{fill:#b57597;}.cls-7{fill:#d5bbc6;}.cls-8{fill:#89941b;}</style></defs><title>CRYPTO 1</title><g class="cls-1"><g id="Layer_1" data-name="Layer 1"><path class="cls-2" d="M1119.93,822.89c0,134.5-109,243.53-243.52,243.53s-243.53-109-243.53-243.53,109-243.52,243.53-243.52S1119.93,688.4,1119.93,822.89Z"/><polygon class="cls-3" points="724.58 769.92 671.3 822.9 724.58 875.87 777.86 822.9 724.58 769.92"/><polygon class="cls-3" points="1028.24 875.87 1081.52 822.9 1028.24 769.92 974.96 822.9 1028.24 875.87"/><polygon class="cls-3" points="828.86 822.9 876.41 870.17 923.96 822.9 876.41 775.62 828.86 822.9"/><polygon class="cls-3" points="876.41 724.91 949.46 797.54 1002.74 744.57 876.41 618.96 750.08 744.57 803.36 797.54 876.41 724.91"/><polygon class="cls-3" points="876.41 920.88 803.36 848.25 750.08 901.23 876.41 1026.83 1002.74 901.23 949.46 848.25 876.41 920.88"/><path class="cls-4" d="M876.41,579.37v487.05c-134.5,0-243.53-109-243.53-243.53S741.91,579.37,876.41,579.37Z"/><path class="cls-5" d="M1102.87,325.11c-17-63.85-48.16-111.53-48.16-111.53a186.67,186.67,0,0,1-8.71,17.1C1004.09,303.33,936.2,300.4,914.31,394l-.54,2.35L947,497.66l6.08-4.3,32.87-23.19L1046,427.75l67.09-47.34Z"/><path class="cls-6" d="M1223.76,270.87c-37.61,24.31-80.53,39.95-120.89,54.24-19.9,7.05-39.17,13.76-56.87,21-31,12.72-57.19,27.11-73.44,47.87-10.48,13.38-17.23,25.68-21.16,37.4-7.22,21.54-4.86,41.13,1.64,62,4.93,15.78,12.22,32.27,19.52,50.86L1046,591c35.7,0,63.08-12.5,84-31,59.5-52.42,67.46-152.94,67.46-152.94C1241.92,344.26,1223.76,270.87,1223.76,270.87Z"/><path class="cls-7" d="M1130.05,560.07c-33.57-10.51-61-24.19-84-39.3-24.28-15.94-43.64-33.47-60.09-50.6-13-13.51-24.16-26.77-34.51-38.77-13-15.12-24.72-28.25-37.09-37.39-11.53-8.53-23.63-13.6-37.9-13.6-46,0-54.16,37.18-71.53,62.78,37.46,14.31,43.64,91,76,158,29.78,61.6,95.24,101.06,165.11,115.26,110.73,22.51,232.56-18.4,241.12-135.07C1223.08,581.34,1171.82,573.14,1130.05,560.07Z"/><path class="cls-8" d="M878.56,425.76a10.48,10.48,0,1,0,10.49,10.48A10.48,10.48,0,0,0,878.56,425.76Z"/><path class="cls-4" d="M1046,230.68V716.41c-69.87-14.2-135.33-53.66-165.11-115.26-32.37-66.94-38.55-143.65-76-158,17.37-25.6,25.56-62.78,71.53-62.78,14.27,0,26.37,5.07,37.9,13.6C936.2,300.4,1004.09,303.33,1046,230.68Z"/></g></g></svg>